<svg width="64" height="64" viewBox="0 0 64 64" fill="none" xmlns="http://www.w3.org/2000/svg">
<path d="M44.4729 15.5508C37.4826 15.5508 31.3398 19.3009 27.8891 24.9232L23.2297 18.4915L36.9139 0H22.8367L11.4517 16.2552V0H0V41.5857H11.4517V21.8735L23.0048 38.6192L25.1003 41.5469V64H36.5529V53.5031C38.9743 54.5989 41.6548 55.2092 44.4729 55.2092C55.2401 55.2092 64 46.3139 64 35.38C64 24.4461 55.2401 15.5508 44.4729 15.5508ZM44.4729 43.649C41.1144 43.649 38.2244 41.5734 36.9815 38.6192C36.8019 38.191 36.6585 37.7482 36.5529 37.2953C36.5089 37.1078 36.4708 36.918 36.4395 36.7257C36.3899 36.4225 36.357 36.1167 36.3409 35.8098C36.3337 35.6674 36.3301 35.5241 36.3299 35.38C36.3299 30.8204 39.9826 27.1109 44.4729 27.1109C48.9632 27.1109 52.616 30.8204 52.616 35.38C52.616 39.9396 48.9633 43.649 44.4729 43.649Z" fill="#28C8C8"/>
</svg>
