<svg width="130" height="28" viewBox="0 0 130 28" fill="none" xmlns="http://www.w3.org/2000/svg">
<path d="M40.9559 12.8781L36.9034 8.67674V12.8781H35.9668V3.78113H36.9034V8.03661L40.9559 3.78113H42.1429L37.7751 8.32512L42.1893 12.8781H40.9559Z" fill="white"/>
<path d="M50.2291 9.67751H44.1643C44.177 10.1636 44.3174 10.6385 44.5723 11.0569C44.7902 11.4347 45.1111 11.7467 45.4997 11.9585C45.8992 12.154 46.3414 12.253 46.7887 12.247C47.3314 12.2625 47.8659 12.1145 48.3188 11.8233C48.7272 11.5432 49.0198 11.1309 49.1441 10.6602H50.1271C49.9504 11.3105 49.5555 11.8848 49.005 12.2921C48.3676 12.7411 47.5938 12.9696 46.8072 12.9413C46.1599 12.9539 45.5205 12.8016 44.9525 12.4995C44.4128 12.1984 43.9722 11.7544 43.6821 11.2192C43.3586 10.6258 43.1989 9.96111 43.2184 9.28983C43.2018 8.61702 43.3579 7.95079 43.6728 7.35142C43.9684 6.82247 44.4207 6.39212 44.9711 6.11625C45.5391 5.81416 46.1785 5.66185 46.8258 5.67447C47.4738 5.65483 48.1151 5.80758 48.6805 6.11625C49.1882 6.39345 49.6034 6.8065 49.8767 7.30634C50.166 7.81343 50.3131 8.3855 50.3033 8.96526C50.3157 9.20253 50.3157 9.44024 50.3033 9.67751M49.0514 7.58583C48.8373 7.21887 48.514 6.92345 48.1241 6.73834C47.7231 6.5467 47.2819 6.44795 46.835 6.44984C46.1778 6.43589 45.5403 6.66833 45.0545 7.09898C44.5503 7.57305 44.2573 8.22042 44.2385 8.90215H49.376C49.403 8.43046 49.2904 7.96112 49.0514 7.54977" fill="white"/>
<path d="M58.6306 9.67751H52.5657C52.5784 10.1636 52.7189 10.6385 52.9738 11.0569C53.1917 11.4347 53.5126 11.7467 53.9011 11.9585C54.3007 12.154 54.7428 12.253 55.1901 12.247C55.7329 12.2625 56.2673 12.1145 56.7202 11.8233C57.1287 11.5432 57.4212 11.1309 57.5456 10.6602H58.5378C58.3542 11.3097 57.9568 11.8829 57.4065 12.2921C56.769 12.7411 55.9953 12.9696 55.2087 12.9413C54.5614 12.9539 53.922 12.8016 53.354 12.4995C52.8095 12.2014 52.3652 11.7568 52.0742 11.2192C51.7551 10.6243 51.5956 9.96065 51.6106 9.28983C51.594 8.61702 51.7501 7.95079 52.065 7.35142C52.3482 6.82894 52.7837 6.39929 53.3169 6.11625C53.8849 5.81416 54.5243 5.66185 55.1716 5.67447C55.8196 5.65483 56.4609 5.80758 57.0263 6.11625C57.5346 6.39566 57.9522 6.80794 58.2318 7.30634C58.5139 7.81578 58.6575 8.38677 58.6491 8.96526C58.6615 9.20253 58.6615 9.44024 58.6491 9.67751M57.3972 7.58583C57.1831 7.21887 56.8598 6.92345 56.4699 6.73834C56.0664 6.54438 55.6216 6.44554 55.1716 6.44984C54.5169 6.43447 53.8817 6.66726 53.4004 7.09898C52.8935 7.57213 52.5973 8.21935 52.575 8.90215H57.7218C57.746 8.42958 57.6301 7.96018 57.3879 7.54977" fill="white"/>
<path d="M62.4801 6.14328C63.0196 5.81899 63.6452 5.65596 64.2792 5.67445C64.9055 5.66442 65.5233 5.81692 66.0689 6.11623C66.5987 6.42091 67.0294 6.86463 67.3116 7.39648C67.6025 7.99716 67.7533 8.65291 67.7533 9.31686C67.7533 9.9808 67.6025 10.6366 67.3116 11.2372C67.0325 11.7736 66.6013 12.221 66.0689 12.5265C65.5268 12.8359 64.9078 12.9949 64.2792 12.9863C63.6475 12.9993 63.0256 12.8332 62.4894 12.5085C62.0082 12.2243 61.6218 11.811 61.3766 11.3184V16.232H60.4492V5.77362H61.3766V7.33337C61.6215 6.84333 62.0041 6.43071 62.4801 6.14328ZM66.4584 7.78416C66.2373 7.37274 65.8993 7.03166 65.4847 6.80143C65.0589 6.57408 64.5794 6.45907 64.0937 6.46785C63.6121 6.46345 63.1381 6.58488 62.7212 6.81946C62.3082 7.04659 61.968 7.3805 61.7382 7.78416C61.5003 8.25236 61.3765 8.76757 61.3765 9.28981C61.3765 9.81204 61.5003 10.3273 61.7382 10.7955C61.9593 11.2169 62.3005 11.5675 62.7212 11.8052C63.1441 12.0426 63.6239 12.1676 64.1122 12.1676C64.6006 12.1676 65.0803 12.0426 65.5032 11.8052C65.9205 11.5702 66.2587 11.2225 66.477 10.8045C66.7071 10.3261 66.8265 9.80442 66.8265 9.27628C66.8265 8.74815 66.7071 8.22647 66.477 7.7481" fill="white"/>
<path d="M80.7022 8.09687C80.4319 8.54921 80.0325 8.91562 79.5523 9.15173C78.9546 9.44232 78.2912 9.58185 77.6234 9.55744H76.2232V12.8212H73.9141V3.74222H77.6234C78.2635 3.7275 78.8983 3.85711 79.4781 4.12088C79.9788 4.32651 80.4004 4.6797 80.6837 5.13066C80.9486 5.59332 81.083 6.11587 81.0732 6.64532C81.0803 7.15217 80.9525 7.65222 80.7022 8.09687ZM78.4302 7.49281C78.6402 7.25944 78.756 6.9599 78.756 6.64983C78.756 6.33975 78.6402 6.04022 78.4302 5.80685C78.1521 5.60168 77.8036 5.50809 77.4565 5.54539H76.2232V7.8264H77.4565C77.8085 7.85355 78.1575 7.74689 78.4302 7.52887" fill="white"/>
<path d="M85.6266 5.85185C86.0357 5.63594 86.4967 5.53012 86.9619 5.54532V7.88944H86.3313C85.8704 7.8491 85.4107 7.97773 85.0423 8.25007C84.8813 8.41594 84.7597 8.61411 84.6859 8.83064C84.6122 9.04716 84.5883 9.27677 84.6157 9.50328V12.8572H82.3438V5.54532H84.625V6.75344C84.8836 6.3824 85.2262 6.07396 85.6266 5.85185Z" fill="white"/>
<path d="M89.5491 12.4696C88.9754 12.1746 88.4995 11.7276 88.1766 11.1803C87.8446 10.5738 87.6709 9.89735 87.6709 9.21032C87.6709 8.5233 87.8446 7.8468 88.1766 7.24035C88.5004 6.68294 88.9836 6.22882 89.5676 5.93306C90.1781 5.6278 90.8564 5.473 91.5429 5.48227C92.2291 5.47518 92.9068 5.62986 93.5181 5.93306C94.0974 6.23188 94.5769 6.68546 94.8999 7.24035C95.2375 7.84345 95.4144 8.51916 95.4144 9.20581C95.4144 9.89246 95.2375 10.5682 94.8999 11.1713C94.5721 11.7266 94.0857 12.1776 93.4996 12.4696C92.8876 12.772 92.2108 12.9297 91.5243 12.9297C90.8378 12.9297 90.161 12.772 89.5491 12.4696ZM92.6371 10.5402C92.9634 10.1709 93.1267 9.69142 93.0915 9.20581C93.1253 8.72191 92.9659 8.24398 92.6464 7.87147C92.5081 7.71823 92.3365 7.5967 92.1441 7.51563C91.9517 7.43457 91.7432 7.39597 91.5336 7.40264C91.3251 7.39789 91.118 7.43644 90.9261 7.51574C90.7342 7.59503 90.5619 7.71324 90.4208 7.86245C90.1334 8.25805 89.9791 8.7305 89.9791 9.21483C89.9791 9.69916 90.1334 10.1716 90.4208 10.5672C90.5571 10.7181 90.7256 10.8382 90.9146 10.9192C91.1036 11.0002 91.3086 11.04 91.5151 11.036C91.7242 11.0396 91.9317 10.9997 92.1237 10.9188C92.3156 10.838 92.4876 10.7181 92.6279 10.5672" fill="white"/>
<path d="M108.422 6.32077C108.706 6.62835 108.924 6.98747 109.064 7.37742C109.204 7.76738 109.263 8.18043 109.238 8.59276V12.8212H106.976V8.89029C106.999 8.49521 106.863 8.10688 106.595 7.80839C106.457 7.67913 106.292 7.57885 106.112 7.51373C105.932 7.44861 105.74 7.42002 105.548 7.42972C105.355 7.41893 105.163 7.44702 104.983 7.5122C104.802 7.57738 104.638 7.67823 104.5 7.80839C104.232 8.10688 104.096 8.49521 104.119 8.89029V12.8212H101.847V8.89029C101.861 8.69444 101.835 8.49792 101.769 8.31216C101.704 8.12641 101.601 7.95516 101.467 7.80839C101.329 7.67823 101.165 7.57738 100.984 7.5122C100.804 7.44702 100.611 7.41893 100.419 7.42972C100.227 7.42002 100.035 7.44861 99.8551 7.51373C99.6749 7.57885 99.5103 7.67913 99.3714 7.80839C99.1042 8.10688 98.9677 8.49521 98.9912 8.89029V12.8212H96.71V5.5454H98.9541V6.44699C99.2008 6.13921 99.5185 5.89213 99.8815 5.72572C100.292 5.57356 100.732 5.51198 101.17 5.5454C101.694 5.53773 102.21 5.65867 102.673 5.89702C103.104 6.12829 103.46 6.47169 103.702 6.88877C103.966 6.48643 104.33 6.15478 104.759 5.92407C105.2 5.67215 105.704 5.54128 106.215 5.5454C106.621 5.52673 107.026 5.5891 107.405 5.72867C107.785 5.86824 108.131 6.08203 108.422 6.35683" fill="white"/>
<path d="M111.09 4.49056C110.971 4.38022 110.876 4.24738 110.811 4.10013C110.745 3.95289 110.712 3.7943 110.712 3.63405C110.712 3.4738 110.745 3.31522 110.811 3.16797C110.876 3.02073 110.971 2.88789 111.09 2.77755C111.345 2.55568 111.676 2.43361 112.018 2.43495C112.36 2.43446 112.69 2.55642 112.945 2.77755C113.065 2.88789 113.16 3.02073 113.225 3.16797C113.29 3.31522 113.323 3.4738 113.323 3.63405C113.323 3.7943 113.29 3.95289 113.225 4.10013C113.16 4.24738 113.065 4.38022 112.945 4.49056C112.69 4.71169 112.36 4.83365 112.018 4.83316C111.676 4.8345 111.345 4.71243 111.09 4.49056ZM113.205 12.8212H110.923V5.54541H113.205V12.8212Z" fill="white"/>
<path d="M116.23 12.6049C115.756 12.4137 115.343 12.1024 115.034 11.7033C114.741 11.3409 114.566 10.9012 114.533 10.4411H116.796C116.804 10.5623 116.84 10.6801 116.901 10.7862C116.962 10.8922 117.047 10.9837 117.148 11.0542C117.378 11.2129 117.655 11.2951 117.937 11.2886C118.171 11.302 118.404 11.2454 118.604 11.1263C118.675 11.0794 118.734 11.0162 118.774 10.9424C118.815 10.8685 118.836 10.7862 118.836 10.7026C118.836 10.6017 118.804 10.5034 118.744 10.421C118.685 10.3386 118.6 10.2764 118.502 10.2428C118.152 10.1001 117.788 9.98844 117.417 9.90917C116.965 9.80922 116.519 9.68276 116.082 9.5305C115.724 9.39333 115.406 9.17365 115.155 8.89038C114.88 8.56015 114.741 8.14244 114.765 7.71832C114.763 7.31397 114.886 6.91838 115.117 6.58232C115.38 6.22035 115.744 5.93884 116.165 5.77089C116.682 5.5612 117.238 5.45982 117.797 5.47337C118.593 5.42917 119.378 5.66969 120.005 6.14956C120.547 6.6078 120.88 7.25612 120.932 7.95273H118.836C118.806 7.71834 118.683 7.50469 118.493 7.35768C118.274 7.20627 118.01 7.13011 117.742 7.1413C117.527 7.12604 117.313 7.17649 117.13 7.28556C117.06 7.33077 117.004 7.39278 116.967 7.46549C116.929 7.5382 116.912 7.61911 116.916 7.70028C116.916 7.8011 116.948 7.89948 117.008 7.98184C117.068 8.06421 117.153 8.12649 117.25 8.16009C117.594 8.29972 117.951 8.40544 118.317 8.47565C118.774 8.58237 119.223 8.71789 119.661 8.88136C120.021 9.0198 120.34 9.24285 120.589 9.5305C120.869 9.86931 121.014 10.2952 120.997 10.7296C120.995 11.1348 120.862 11.5291 120.617 11.8566C120.346 12.2085 119.98 12.4802 119.559 12.641C119.053 12.8409 118.511 12.9391 117.964 12.9295C117.369 12.9395 116.779 12.829 116.23 12.6049Z" fill="white"/>
<path d="M129.442 9.73782H124.277C124.285 10.1232 124.444 10.491 124.722 10.7656C124.972 10.9979 125.304 11.1272 125.65 11.1263C125.898 11.1438 126.146 11.0855 126.359 10.9595C126.572 10.8334 126.739 10.6458 126.837 10.423H129.266C129.145 10.8985 128.915 11.3413 128.594 11.719C128.273 12.0966 127.869 12.3993 127.411 12.6049C126.84 12.8398 126.222 12.9494 125.602 12.9261C124.981 12.9027 124.374 12.7469 123.823 12.4696C123.256 12.1784 122.791 11.7296 122.487 11.1804C122.154 10.5735 121.988 9.89342 122.005 9.20588C121.989 8.51946 122.151 7.84019 122.478 7.23141C122.783 6.68397 123.243 6.2333 123.804 5.93313C124.411 5.62613 125.086 5.47118 125.77 5.48233C126.438 5.46781 127.099 5.6199 127.69 5.92411C128.241 6.21267 128.698 6.64714 129.007 7.17731C129.332 7.76375 129.495 8.42245 129.479 9.08868C129.479 9.29604 129.479 9.51242 129.479 9.73782M127.143 8.50264C127.152 8.33269 127.12 8.16297 127.051 8.00663C126.982 7.85029 126.877 7.71151 126.744 7.60106C126.465 7.37067 126.108 7.24865 125.742 7.25846C125.403 7.25701 125.075 7.37197 124.815 7.58303C124.542 7.81424 124.367 8.13539 124.323 8.48462L127.143 8.50264Z" fill="white"/>
<path d="M37.8941 20.9214L38.0483 21.09L38.2603 21.3149L38.6651 21.774C38.7575 21.8757 38.8444 21.982 38.9253 22.0925C38.7422 22.3268 38.6073 22.4954 38.5205 22.6172C38.4431 22.4635 38.3528 22.3162 38.2507 22.1769C38.1351 21.9988 38.0098 21.8302 37.8941 21.6616V24.7252H37.2292V21.6428C37.1064 21.9946 36.9616 22.3388 36.7956 22.6734C36.656 22.9573 36.4882 23.2272 36.2944 23.4792C36.2944 23.3948 36.2077 23.2918 36.1403 23.17L35.9668 22.8889C36.2414 22.5395 36.4712 22.1588 36.651 21.7552C36.856 21.3143 37.0205 20.8565 37.1425 20.3874H36.1788V19.7784H37.2292V18.3636H37.8941V19.8252H38.8578V20.4342H37.8941V20.9214ZM42.4138 18.7009V24.6409H41.7488V24.2662H39.8215V24.6784H39.1277V18.7009H42.4138ZM39.7637 20.3499H41.7488V19.3006H39.8215L39.7637 20.3499ZM39.7637 22.0082H41.7488V20.9401H39.8215L39.7637 22.0082ZM41.691 22.5985H39.7637V23.6665H41.7488L41.691 22.5985Z" fill="white"/>
<path d="M47.5312 18.5229C47.4541 18.7384 47.3578 18.9633 47.2614 19.1788C47.165 19.3943 47.059 19.6191 46.953 19.8346V24.744H46.3363V20.8746C46.2445 21.0172 46.1448 21.1548 46.0375 21.2868C45.9412 21.418 45.8351 21.5398 45.7388 21.6522L45.6039 21.343L45.4111 21.0339C45.7517 20.6662 46.0461 20.2605 46.2881 19.8252C46.5525 19.3498 46.7781 18.8548 46.9626 18.3449L47.5601 18.5229M51.9834 19.4599V19.9939H47.4059V19.4599H49.5068C49.4468 19.3084 49.3759 19.1613 49.2947 19.0195C49.2131 18.859 49.123 18.7026 49.0249 18.5511L49.6031 18.3356C49.6995 18.4761 49.7959 18.6354 49.8922 18.804C49.9886 18.9727 50.0657 19.1132 50.1235 19.2444L49.6031 19.4599H51.9834ZM47.83 22.4861H51.5112V24.7346H50.9041V24.5004H48.3793V24.7534H47.8107L47.83 22.4861ZM51.3859 20.9683H47.9071V20.4436H51.3859V20.9683ZM47.8781 21.4367H51.3859V21.952H47.9071L47.8781 21.4367ZM48.3793 23.9851H50.9041V23.0482H48.3793V23.9851Z" fill="white"/>
<path d="M62.1967 21.9052V22.1487C62.1967 22.2237 62.1967 22.2987 62.1967 22.3736H65.0877V22.9264H61.9847C61.8074 23.3847 61.4873 23.7777 61.0692 24.0507C60.4314 24.4127 59.722 24.6394 58.9877 24.7159C58.95 24.6115 58.9015 24.511 58.8431 24.4161C58.7877 24.3169 58.7232 24.2228 58.6504 24.135C59.2598 24.0753 59.8553 23.9203 60.4139 23.6759C60.7575 23.5108 61.0427 23.2499 61.233 22.9264H58.9299V22.3736H61.4161C61.4161 22.2987 61.4161 22.2237 61.4643 22.1487C61.5125 22.0738 61.4643 21.9895 61.4643 21.9052H58.766V21.3336H61.58V20.8371H59.4117V20.2843H61.58V19.8065H59.0069V19.235H60.4525C60.3852 19.1095 60.3112 18.9876 60.2308 18.8696C60.151 18.7439 60.0608 18.6249 59.961 18.5136L60.5488 18.2887C60.6794 18.4169 60.7957 18.5583 60.8958 18.7103C60.9935 18.8407 61.0745 18.9823 61.1367 19.1319L60.9054 19.235H62.6593L62.9677 18.7571C63.0603 18.6058 63.1439 18.4494 63.2182 18.2887L63.9313 18.4761L63.6711 18.8696L63.4013 19.235H64.8757V19.8065H62.2738V20.2843H64.5192V20.8371H62.2738V21.3336H65.1648V21.9052H62.1967ZM64.8565 24.7159C64.6014 24.5554 64.3376 24.4084 64.0662 24.2755C63.7482 24.1162 63.4109 23.957 63.0544 23.8071L62.5051 23.5728C62.3124 23.4979 62.1389 23.4229 61.9654 23.3667L62.2642 22.8795C62.5629 22.9826 62.9002 23.1044 63.2278 23.2543C63.5555 23.4042 63.9313 23.5447 64.259 23.6946L64.7408 23.9195L65.1456 24.1444C65.001 24.3973 64.895 24.5847 64.8275 24.7159" fill="white"/>
<path d="M70.659 20.3405C70.6462 20.7516 70.6075 21.1614 70.5434 21.5679C70.4655 22.0222 70.3228 22.4637 70.1194 22.8796L70.6108 23.3293C70.7471 23.4531 70.8758 23.5845 70.9963 23.7228C70.8036 23.9664 70.6494 24.1538 70.5434 24.2662C70.4567 24.1538 70.341 24.032 70.2157 23.8914L69.7821 23.4792C69.6127 23.7109 69.4259 23.9301 69.2231 24.135C69.0022 24.3623 68.7603 24.5692 68.5004 24.7534C68.4293 24.667 68.352 24.5856 68.2691 24.5098C68.1959 24.4274 68.1116 24.3549 68.0186 24.2943C68.2883 24.1186 68.5372 23.9144 68.7606 23.6853C68.9594 23.4845 69.1369 23.2648 69.2906 23.0295C69.1075 22.8608 68.9148 22.7016 68.7124 22.5423L68.1824 22.1113C68.2661 21.8619 68.3368 21.6087 68.3944 21.3524C68.4618 21.0713 68.5293 20.7809 68.5871 20.4717H68.086C68.086 20.1625 68.0282 19.9564 68.0186 19.8534H68.7028C68.7028 19.591 68.7799 19.3381 68.8088 19.0757C68.8377 18.8134 68.8762 18.5698 68.8955 18.3356H69.5508C69.5508 18.5604 69.493 18.7947 69.4544 19.0476C69.4159 19.3006 69.387 19.5348 69.3484 19.7878H70.0712V19.3006H70.659V19.7503H71.0541V20.3312H70.6494M69.2039 20.4155C69.1557 20.6778 69.0979 20.9308 69.0401 21.1838C68.9822 21.4367 68.934 21.6616 68.8762 21.8771L69.2328 22.1488L69.5893 22.4392C69.7541 22.0976 69.8677 21.7347 69.9266 21.3618C69.9838 21.0301 70.0192 20.6953 70.0326 20.3593L69.2039 20.4155ZM74.6101 21.8302H73.126V23.9851C73.1319 24.1294 73.1056 24.2732 73.0489 24.4067C72.9937 24.5082 72.9006 24.5853 72.7887 24.6222C72.6335 24.6742 72.471 24.7026 72.3069 24.7065C72.0726 24.7181 71.8378 24.7181 71.6034 24.7065C71.6034 24.6128 71.6034 24.5098 71.5167 24.388C71.474 24.2826 71.4258 24.1794 71.3721 24.0788H72.278C72.3189 24.0905 72.3624 24.0905 72.4033 24.0788C72.4033 24.0788 72.4033 24.0226 72.4033 23.9664V21.8396H70.8518V21.2212H72.4418V20.4717C72.6263 20.3172 72.7971 20.148 72.9526 19.9658C73.1164 19.769 73.2609 19.5817 73.3959 19.3849H71.1505V18.7853H73.8584H74.0126L74.4655 19.1038C74.2861 19.3851 74.0831 19.6515 73.8584 19.9002C73.6315 20.1655 73.3869 20.4158 73.126 20.6497V21.2587H74.639L74.6101 21.8302Z" fill="white"/>
<path d="M81.9149 19.0289L82.2811 19.3662L82.6569 19.7316C82.8882 19.9658 83.1098 20.2 83.3122 20.4342C83.4909 20.632 83.6552 20.8418 83.8037 21.062L83.2447 21.4648L83.0616 21.1744L82.8304 20.8746L81.0476 20.9683L79.8141 21.0339H79.2455H78.8215C78.6672 21.0699 78.5158 21.1169 78.3686 21.1744L78.1084 21.2306C78.1084 21.165 78.0602 21.062 78.012 20.9308C77.9638 20.7996 77.9253 20.6872 77.8867 20.5935C77.9862 20.5769 78.0793 20.5349 78.1565 20.4717C78.2701 20.3864 78.3764 20.2924 78.4746 20.1906C78.6175 20.0672 78.7496 19.9324 78.8697 19.7878C79.0528 19.6004 79.2455 19.3755 79.4479 19.1226C79.5646 18.99 79.6709 18.849 79.7659 18.701C79.8815 18.5511 79.9779 18.4105 80.0743 18.2606L80.7392 18.5417C80.4787 18.8964 80.1989 19.2373 79.9008 19.5629C79.6117 19.8908 79.313 20.1906 79.0142 20.4998L82.3582 20.3687C82.204 20.2 82.0498 20.0314 81.886 19.8721L81.4138 19.413L81.9342 19.0664M78.3686 21.7553H83.0327V24.7159H82.3196V24.3692H79.0431V24.7346H78.3686V21.7553ZM79.0431 23.7322H82.3196V22.3736H79.0431V23.7322Z" fill="white"/>
<path d="M87.8319 21.4087C87.6909 21.2692 87.536 21.1436 87.3693 21.034C87.1882 20.9059 86.9982 20.7901 86.8008 20.6873L87.167 20.2376C87.3501 20.3219 87.5428 20.4344 87.7548 20.5562C87.9258 20.6568 88.0842 20.7763 88.227 20.9122L87.8319 21.4087ZM86.9453 24.3132C87.0802 24.0508 87.2248 23.7135 87.3886 23.3107C87.5524 22.9078 87.7066 22.4956 87.8319 22.1021L88.3716 22.4393C88.2559 22.7954 88.1307 23.1795 87.9765 23.573C87.8223 23.9665 87.6874 24.3225 87.5428 24.6504L86.9453 24.3132ZM87.9572 19.6286C87.8222 19.4844 87.6738 19.3527 87.5139 19.2351C87.3376 19.0967 87.1507 18.9714 86.955 18.8604L87.3404 18.4294C87.5358 18.5356 87.7256 18.6513 87.909 18.776C88.0754 18.8822 88.2275 19.0081 88.3619 19.1508C88.1788 19.3569 88.0439 19.5256 87.9572 19.6286ZM88.7956 20.959C88.7676 21.1306 88.7257 21.2998 88.6703 21.465C88.6224 21.6122 88.5645 21.7562 88.4968 21.8959L88.3523 21.7929L88.1788 21.6898C88.2499 21.5678 88.3081 21.4391 88.3523 21.3057C88.3896 21.1637 88.4185 21.0198 88.439 20.8747L88.7956 20.959ZM89.7593 20.678C89.7593 20.678 89.7593 20.6124 89.7593 20.5749C89.7551 20.5375 89.7551 20.4998 89.7593 20.4625L88.7956 20.5936L88.5065 20.6686L88.4487 20.5281C88.4487 20.4625 88.3908 20.4063 88.3619 20.3688C88.4221 20.3575 88.4785 20.3317 88.5258 20.2938C88.5906 20.2484 88.6489 20.1948 88.6992 20.1346L88.8727 19.9565L89.104 19.6474L88.6607 19.7036C88.603 19.6974 88.5449 19.6974 88.4872 19.7036C88.4718 19.6523 88.4524 19.6022 88.4294 19.5537C88.4094 19.5021 88.38 19.4545 88.3427 19.4131C88.3851 19.3986 88.4244 19.3763 88.4583 19.3476C88.5025 19.3094 88.5443 19.2687 88.5836 19.2258L88.7763 18.8885C88.8632 18.7222 88.9279 18.5459 88.969 18.3638L89.3642 18.495C89.3032 18.6369 89.2324 18.7746 89.1521 18.9072C89.079 19.0435 88.9919 19.1722 88.892 19.2913H89.3063L89.4123 19.1321L89.4894 18.9728L89.8749 19.1321C89.7593 19.3194 89.6243 19.4975 89.4894 19.6848C89.3545 19.8722 89.1907 20.0409 89.0461 20.2001L89.5665 20.1346C89.5682 20.1002 89.5682 20.0658 89.5665 20.0315C89.54 20.0015 89.5203 19.9664 89.5087 19.9284L89.8074 19.8254C89.8812 19.9455 89.9456 20.0707 90.0002 20.2001C90.0535 20.306 90.0986 20.4156 90.1351 20.5281L89.8267 20.6686M93.2285 23.3107V23.4044C93.2285 23.4606 93.2285 23.5168 93.2285 23.5543C93.1796 23.784 93.112 24.0096 93.0261 24.2288C92.9728 24.3649 92.8829 24.4846 92.7659 24.5755C92.6901 24.6372 92.6013 24.682 92.5057 24.7067H92.1685H91.571H90.9446C90.9146 24.5318 90.8526 24.3636 90.7615 24.2101H91.3975H92.0335H92.1588C92.2151 24.1597 92.2609 24.0993 92.2937 24.0321C92.3425 23.9254 92.3843 23.8159 92.419 23.7042H88.7089C88.7758 23.5299 88.8305 23.3515 88.8727 23.1701C88.9305 22.9827 88.9787 22.786 89.0269 22.608H92.1781V22.3082H88.786V21.924H92.8237V23.0483H89.5473C89.5473 23.1889 89.4798 23.2919 89.4702 23.3388L93.2285 23.3107ZM89.1521 21.7741C89.1647 21.6401 89.1647 21.5053 89.1521 21.3713C89.1276 21.223 89.0954 21.076 89.0558 20.9309L89.3738 20.856C89.3738 20.9871 89.4509 21.1277 89.4798 21.2776C89.5145 21.3998 89.5339 21.5256 89.5376 21.6523L89.1907 21.7741M89.8171 21.5961C89.7997 21.4728 89.774 21.3507 89.74 21.2307C89.74 21.0902 89.6533 20.959 89.6051 20.8279L89.8845 20.7342C89.945 20.8586 89.9965 20.987 90.0387 21.1183C90.0387 21.2588 90.1062 21.3713 90.1255 21.465L89.8171 21.5961ZM91.7444 19.3757H89.9327V19.0103H90.6555C90.6293 18.9226 90.5938 18.8378 90.5495 18.7573C90.4917 18.6542 90.4531 18.5606 90.4049 18.4856L90.8386 18.3825C90.9626 18.5519 91.06 18.7382 91.1277 18.9353L90.8 19.0103H91.6481L91.7444 19.3757ZM90.1255 20.6686H91.4842V21.6992H90.1255V20.6686ZM91.4746 19.9191H90.1447V19.5911H91.4746V19.9191ZM90.1447 20.1158H91.4746V20.4437H90.1447V20.1158ZM90.5398 21.3713H91.0506V20.9965H90.5398V21.3713ZM92.1395 20.9122C92.1069 21.0828 92.0651 21.2517 92.0143 21.4181C91.9664 21.5654 91.9084 21.7094 91.8408 21.8491L91.6963 21.746L91.5324 21.643C91.6022 21.5183 91.6572 21.3863 91.6963 21.2495C91.6963 21.1089 91.7637 20.9684 91.783 20.8185L92.1395 20.9122ZM93.1032 20.6686C93.1032 20.6686 93.1032 20.603 93.1032 20.5655V20.4344L92.1395 20.5655C92.0374 20.5798 91.9373 20.6049 91.8408 20.6405L91.783 20.4906L91.7059 20.3407C91.7624 20.3273 91.8152 20.3017 91.8601 20.2657L92.0432 20.0971L92.207 19.9097C92.2955 19.8186 92.3731 19.718 92.4383 19.6099L92.0046 19.6661H91.8215C91.8061 19.6148 91.7867 19.5647 91.7637 19.5162C91.7637 19.4506 91.7059 19.4038 91.6866 19.3663C91.7088 19.365 91.7305 19.3594 91.7504 19.3497C91.7703 19.3401 91.7879 19.3266 91.8023 19.3101C91.8451 19.2701 91.8839 19.2262 91.9179 19.1789L92.1106 18.851C92.2157 18.6857 92.2938 18.5055 92.3419 18.317L92.7274 18.4481C92.674 18.5916 92.6062 18.7297 92.525 18.8604C92.4516 18.9914 92.3678 19.1167 92.2745 19.2351H92.6792L92.7756 19.0759L92.8623 18.9259L93.2381 19.0852C93.1219 19.2773 92.9932 19.4619 92.8527 19.638C92.715 19.8177 92.567 19.9898 92.4094 20.1533L92.9394 20.0877L92.8237 20.0128L92.7659 19.9097L93.0647 19.8066C93.1321 19.9284 93.2092 20.0596 93.267 20.1908C93.332 20.3035 93.3837 20.4229 93.4212 20.5468L93.1032 20.6686ZM92.419 21.821C92.4194 21.6791 92.4032 21.5377 92.3708 21.3994C92.3488 21.2376 92.3133 21.0778 92.2648 20.9216L92.5828 20.8372L92.6985 21.2963C92.7096 21.4366 92.7096 21.5776 92.6985 21.7179L92.3708 21.821M93.0647 20.7154C93.1225 20.856 93.1899 21.0059 93.2478 21.1651C93.2911 21.3005 93.3265 21.4381 93.3538 21.5774L93.0358 21.7179C93.0229 21.5708 92.9905 21.426 92.9394 21.287C92.8948 21.1265 92.8368 20.9698 92.7659 20.8185L93.0647 20.7154Z" fill="white"/>
<path d="M20.0128 6.80346C16.8672 6.80346 14.1029 8.44414 12.5501 10.9039L10.4534 8.09005L16.6112 0H10.2765L5.15327 7.11165V0H0V18.1937H5.15327V9.56964L10.3522 16.8959L11.2951 18.1768V28H16.4488V23.4076C17.5384 23.887 18.7447 24.154 20.0128 24.154C24.858 24.154 28.8 20.2623 28.8 15.4787C28.8 10.6952 24.858 6.80346 20.0128 6.80346ZM20.0128 19.0964C18.5015 19.0964 17.201 18.1884 16.6417 16.8959C16.5608 16.7086 16.4963 16.5148 16.4488 16.3167C16.429 16.2347 16.4119 16.1516 16.3978 16.0675C16.3755 15.9348 16.3607 15.8011 16.3534 15.6668C16.3502 15.6045 16.3485 15.5418 16.3485 15.4787C16.3485 13.4839 17.9922 11.861 20.0128 11.861C22.0335 11.861 23.6772 13.4839 23.6772 15.4787C23.6772 17.4736 22.0335 19.0964 20.0128 19.0964Z" fill="#28C8C8"/>
</svg>
